<?xml version="1.0" encoding="UTF-8" standalone="no"?> <!-- Created with Vectornator for iOS (http://vectornator.io/) --><!DOCTYPE svg PUBLIC "-//W3C//DTD SVG 1.1//EN" "http://www.w3.org/Graphics/SVG/1.1/DTD/svg11.dtd">
<svg style="fill-rule:evenodd;clip-rule:evenodd;stroke-linecap:round;stroke-linejoin:round;" xmlns:vectornator="http://vectornator.io" xmlns:xlink="http://www.w3.org/1999/xlink" xmlns="http://www.w3.org/2000/svg" xml:space="preserve" version="1.1" viewBox="0 0 304.704 315.115">
<metadata>
<vectornator:setting key="RulersVisible" value="1"/>
<vectornator:setting key="Units" value="Points"/>
<vectornator:setting key="DynamicGuides" value="1"/>
<vectornator:setting key="GuidesVisible" value="1"/>
<vectornator:setting key="CMYKEnabledKey" value="0"/>
<vectornator:setting key="SnapToGuides" value="1"/>
<vectornator:setting key="GridSpacing" value="36"/>
</metadata>
<defs/>
<g id="％@复制" vectornator:layerName="％@复制">
<path d="M91.5021+188.159C86.7922+188.147+85.0312+184.988+80.7149+181.588C78.556+179.887+77.3973+174.205+80.8803+168.917C84.3633+163.629+85.4028+164.955+90.313+164.319C95.2231+163.683+97.7024+163.664+100.521+166.373C103.34+169.081+104.894+172.488+103.479+179.157C102.063+185.826+100.686+188.182+91.5021+188.159Z" opacity="1" fill="#985440"/>
<path stroke="#000000" stroke-width="3.46" d="M96.9313+151.896C96.9313+120.694+117.416+99.203+143.16+99.203C168.903+99.203+190.516+122.08+190.516+153.283C190.516+184.485+170.031+204.82+144.287+204.82C118.544+204.82+96.9313+183.098+96.9313+151.896Z" fill="#e7a688" stroke-linecap="round" opacity="1" stroke-linejoin="round"/>
<path d="M100.003+161.774C94.1677+168.151+90.8421+151.603+90.1217+149.577C86.4366+139.218+88.9182+130.433+90.7144+122.091C91.8971+116.599+93.4094+110.283+95.8742+104.938C103.57+88.249+116.374+75.7655+137.628+74.2511C152.056+73.2231+173.641+80.5472+184.245+89.6783C202.355+105.273+198.141+135.427+198.754+146.374C199.112+152.776+192.425+162.467+188.462+160.219C187.337+159.581+186.049+153.01+185.878+149.359C185.517+141.661+183.363+136.839+177.112+129.028C169.66+119.715+151.134+115.488+140.297+116.673C130.104+117.787+121.433+117.898+114.364+123.816C109.438+127.94+104.618+136.419+103.428+143.572" opacity="1" fill="#985440"/>
<path stroke="#000000" stroke-width="9.21" d="M126.481+149.828L126.689+153.1L126.863+155.848" fill="none" stroke-linecap="round" opacity="1" stroke-linejoin="round"/>
<path stroke="#000000" stroke-width="2.93" d="M136.541+183.025C136.541+183.025+139.546+179.94+143.253+179.94C146.96+179.94+149.965+183.025+149.965+183.025C149.965+183.025+146.96+186.111+143.253+186.111C139.546+186.111+136.541+183.025+136.541+183.025Z" fill="#ffffff" stroke-linecap="round" opacity="1" stroke-linejoin="round"/>
<path stroke="#000000" stroke-width="2.93" d="M117.699+134.254C117.699+134.254+126.625+135.299+129.226+134.059" fill="#ffffff" stroke-linecap="round" opacity="1" stroke-linejoin="round"/>
<path stroke="#000000" stroke-width="2.93" d="M153.746+133.863C157.346+135.915+165.392+134.048+165.392+134.048" fill="#ffffff" stroke-linecap="round" opacity="1" stroke-linejoin="round"/>
<path stroke="#ffffff" stroke-width="1.94" d="M94.3692+147.341C92.4129+136.867+94.3485+95.1187+137.904+89.4319C166.406+85.7106+175.89+97.5865+184.805+108.562C193.719+119.537+192.103+147.269+192.103+147.269" fill="none" stroke-linecap="round" opacity="1" stroke-linejoin="round"/>
<path stroke="#000000" stroke-width="8.41" d="M156.481+148.828L156.863+154.848" fill="none" stroke-linecap="round" opacity="1" stroke-linejoin="round"/>
<path stroke="#985440" stroke-width="9.21" d="M191.838+157.036C194.912+159.041+205.702+165.001+205.702+165.001" fill="#985440" stroke-linecap="round" opacity="1" stroke-linejoin="round"/>
<path stroke="#985440" stroke-width="6.82" d="M96.4408+160.702C94.7934+162.627+91.9226+168.769+91.9226+168.769" fill="#985440" stroke-linecap="round" opacity="1" stroke-linejoin="round"/>
<path d="M205.211+178.321C201.836+175.037+202.769+171.542+202.033+166.097C201.665+163.373+204.785+158.485+210.965+157.109C217.146+155.732+216.971+157.408+220.941+160.367C224.911+163.325+226.704+165.037+226.845+168.943C226.986+172.85+225.734+176.379+220.078+180.185C214.421+183.992+211.793+184.726+205.211+178.321Z" opacity="1" fill="#985440"/>
</g>
</svg>
