<?xml version="1.0" encoding="utf-8"?>
<!-- Generator: Adobe Illustrator 21.0.0, SVG Export Plug-In . SVG Version: 6.00 Build 0)  -->
<svg version="1.1" id="图层_1" xmlns="http://www.w3.org/2000/svg" xmlns:xlink="http://www.w3.org/1999/xlink" x="0px" y="0px"
	 viewBox="0 0 750 1125" style="enable-background:new 0 0 750 1125;" xml:space="preserve">
<style type="text/css">
	.st0{fill:#FF5592;}
	.st1{opacity:0.29;fill:#7C0A0A;}
	.st2{opacity:0.3;}
	.st3{fill:#FFFFFF;}
	.st4{fill:none;stroke:#000000;stroke-width:10.5162;stroke-linejoin:round;stroke-miterlimit:10;}
	.st5{fill:#3BBCB8;}
	.st6{fill:#57DBFF;}
	.st7{opacity:0.29;fill:#0B307A;}
	.st8{fill:#269B95;}
	.st9{fill:#126861;}
</style>
<g>
	<g>
		<g>
			<path class="st0" d="M519.4,1076.3c-1.5,0-37.2-0.2-74-19.7c-21.4-11.3-39-26.9-52.3-46.3c-4-5.9-7.7-12.1-10.9-18.7
				c1.2,3.7,2.6,7.4,4.2,11.1c12.3,28.8,32.3,47.1,59.7,54.6c2.2,0.6,3.8,2.6,3.9,4.9c0.1,2.3-1.3,4.4-3.5,5.2
				c-0.9,0.3-21.9,7.8-48.8,7.8c-28.5,0-52.3-8.2-70.8-24.5c-8.9-7.8-16.5-17.5-22.6-28.9c4.4,10.9,10.6,20.6,19.6,27.5
				c2,1.6,2.6,4.3,1.5,6.6c-0.9,1.8-2.7,2.8-4.7,2.8c-0.5,0-1.1-0.1-1.6-0.2c-1.1-0.3-26-8.4-48-29.3c-20.1-19-42.1-52.8-32.9-106.3
				c10.9-63.4,40.1-109.6,65.8-150.3c19-30,35.3-55.9,39.8-82.1c0.4-2.5,2.6-4.4,5.2-4.4c0,0,38.2,1,38.2,1c1,0,2,0.4,2.9,0.9
				c1,0.7,23.6,16.7,44.8,47.6c19.6,28.5,41.4,75.6,34.2,137.7c-0.4,3.7-0.8,7.4-1.2,11.6c-4.2,44.2-2.4,85.8,4.9,116.9
				c8.8,37.3,25,58.9,47.9,64.1c2.6,0.6,4.3,3,4.1,5.7C524.4,1074.2,522.2,1076.2,519.4,1076.3
				C519.5,1076.3,519.4,1076.3,519.4,1076.3z"/>
			<path d="M349,691.2l38,1c0,0,90.4,63.2,76.8,180.3c-0.5,3.8-0.8,7.8-1.2,11.7c-3.7,39.5-3.3,83.3,5.1,118.7
				c8.3,35,24.3,61.8,51.9,68c0,0,0,0-0.1,0c-3.1,0-137.4-0.9-150.7-150.3l0-0.1c-0.2-2.2-0.4-4.5-0.5-6.8c0,0-4.8,48.5,13.3,90.8
				c10.8,25.4,29.9,48.5,63.2,57.6c0,0-20.7,7.5-47,7.5c-43,0-100.8-20-107.4-125.3c0,0-8.7,78.8,30.4,108.9
				c-2.6-0.8-94.3-30.9-77.3-129.7C262.2,814,338.1,754.4,349,691.2 M348.9,680.7c-5.1,0-9.5,3.7-10.4,8.7
				c-4.3,25.2-20.4,50.7-39.1,80.2c-26,41.2-55.5,87.8-66.5,152.2c-9.6,55.8,13.4,91.2,34.4,111c22.6,21.3,47.3,29.6,50.1,30.5
				c1.1,0.3,2.1,0.5,3.2,0.5c3.4,0,6.7-1.7,8.6-4.5c18.5,13.9,41.5,20.9,68.3,20.9c27.8,0,49.7-7.8,50.6-8.1c2.7-1,4.9-3,6-5.6
				c33.7,14.7,63.8,14.9,65.2,14.9l0.1,0c5.3-0.1,9.8-4.1,10.4-9.4c0.6-5.3-2.9-10.2-8.1-11.4c-20.8-4.8-35.6-25-44-60.2
				c-7.2-30.6-8.9-71.6-4.8-115.3c0.4-4.3,0.8-7.9,1.2-11.5c3.3-28.1,1.1-55.6-6.6-81.8c-6.1-20.9-15.7-40.9-28.5-59.5
				c-21.7-31.7-45.2-48.2-46.2-48.9c-1.7-1.2-3.7-1.8-5.7-1.9l-38-1C349.1,680.7,349,680.7,348.9,680.7L348.9,680.7z"/>
		</g>
		<path class="st1" d="M320.6,1053.4c-39.2-30-30.4-108.9-30.4-108.9c10.7,169.8,154.4,117.8,154.4,117.8
			c-33.3-9.1-52.3-32.2-63.2-57.6c-14.1-17-25.8-36.1-34.5-56.5c-6,42.3,6.5,83.4,47.5,95.2c-24.3,0.6-41.1-3.7-61.7-23.2
			c-30.3-28.8-33.1-74.3-40.4-115.4c-12.5,20.4-16.2,38.8-17.5,62.7c-1.3,23.5,4.9,33.3,17,53.9c-22.8-16.8-43.9-50.1-34.1-93.3
			c9.1-40.4,41.9-71.8,54.4-111.3c-6.4,26.3-12.1,49.6-2.6,80.5c7.5-64.8,23-105.9,51.1-152.9c-6.9,42.8-4.7,87.1,6.3,129
			c0.6-39,7.3-78,20.1-114.9c7.5,38.8,20.9,76.4,39.6,111.1c-15-36.5,4.8-81-12.5-116.5c27.7,38.2,44.6,84.1,48.4,131.1
			c0.4-4,0.8-7.9,1.2-11.7C477.4,755.5,387,692.2,387,692.2l-38-1c-10.9,63.1-86.8,122.8-105.6,232.4
			C226.3,1022.5,318,1052.5,320.6,1053.4z"/>
		<path class="st1" d="M519.5,1071c-27.5-6.3-43.6-33-51.9-68c-5.9-5.9-11.3-12.4-16-19.3c-14.5-21.1-23.6-45.4-31.3-69.8
			c-6.1,51.6,14.7,105.6,53.7,139.8c-53.2-36.7-87.7-105.5-103.1-168.3c-1.6,11-2.4,22.9-2.2,35.2l0,0.1
			C382.1,1071.9,519.5,1071,519.5,1071z"/>
		<g>
			<path d="M374.5,710.3c-0.2,2.7-0.4,5.1-0.7,7.6c-0.3,2.5-0.6,5-1,7.4c-0.7,4.9-1.5,9.8-2.5,14.7c-1.9,9.8-4.2,19.4-6.9,29
				c-2.7,9.6-5.9,19-9.6,28.2c-3.7,9.1-7.6,18.1-11.5,27.1c-3.9,9-7.9,18-11.6,27c-3.7,9-7.1,18.1-9.5,27.5
				c-2.4,9.4-3.5,19.1-3.1,28.8c0.4,9.7,2.3,19.4,4.9,28.9c-3-9.3-5.5-18.9-6.4-28.7c-1-9.8-0.3-19.9,1.6-29.6
				c1.9-9.7,5-19.2,8.2-28.5c3.3-9.3,6.8-18.5,10.2-27.6c3.4-9.2,6.8-18.4,10-27.6c3.2-9.1,6.1-18.4,8.4-27.7
				c2.4-9.4,4.3-18.9,5.8-28.4c0.8-4.8,1.4-9.6,1.9-14.3c0.3-2.4,0.5-4.8,0.7-7.2c0.2-2.4,0.4-4.8,0.4-7.1L374.5,710.3z"/>
		</g>
		<g>
			<path d="M393.3,695.2c1.2,2.6,2.3,5.1,3.3,7.6c1,2.5,2,5.1,2.9,7.6c1.9,5.1,3.6,10.2,5.2,15.4c3.1,10.4,5.7,20.9,7.7,31.5
				c1,5.3,1.8,10.7,2.5,16c0.7,5.4,1.1,10.8,1.5,16.1c0.3,5.4,0.4,10.8,0.3,16.2c-0.1,5.4-0.4,10.8-0.8,16.1
				c-0.8,10.7-1.9,21.3-2.9,31.9c-1,10.6-1.8,21.2-1.7,31.7c0.1,10.6,1.1,21.1,3.6,31.4c2.5,10.3,6.6,20.2,11.8,29.5
				c-5.6-9-10.1-18.8-13.1-29.1c-3-10.3-4.5-21-5.1-31.7c-0.5-10.7-0.2-21.5,0.4-32.1c0.5-10.7,1.2-21.3,1.5-31.9
				c0.2-5.3,0.2-10.6,0.1-15.8c-0.1-5.2-0.5-10.5-0.9-15.7c-0.5-5.2-1.2-10.4-2-15.6c-0.8-5.2-1.8-10.3-3-15.5
				c-2.3-10.2-5.2-20.3-8.6-30.2c-1.7-5-3.6-9.9-5.6-14.7c-1-2.4-2-4.8-3.1-7.2c-1.1-2.3-2.2-4.8-3.3-6.9L393.3,695.2z"/>
		</g>
		<g class="st2">
			<path class="st3" d="M338.7,747c-12.7,23.4-24.9,46.6-36,70.2c-11.1,23.6-21.2,47.5-28.8,72c-1.9,6.1-3.6,12.3-5.1,18.5
				c-1.5,6.2-2.7,12.4-3.7,18.6c-2,12.5-2.8,25-1.9,37.5c0.8,12.4,3.8,24.7,8.9,36.2c2.6,5.8,5.8,11.3,9.5,16.6
				c3.8,5.2,8,10.3,12.7,15.1c-11.6-6.5-22-15.8-29.7-27.4c-7.7-11.5-12.8-24.9-15.1-38.7c-0.4-1.7-0.5-3.4-0.8-5.2
				c-0.3-1.7-0.4-3.5-0.6-5.2l-0.2-2.6l-0.1-2.6c-0.1-1.7-0.2-3.5-0.2-5.2c-0.2-6.9,0.3-13.8,1-20.7c0.8-6.8,1.9-13.6,3.3-20.3
				c1.5-6.7,3.2-13.2,5.2-19.8c8-26,19.7-50.4,33.4-73.3c6.9-11.5,14.3-22.6,22.3-33.2c4-5.3,8.1-10.6,12.4-15.7
				C329.5,756.7,334,751.8,338.7,747z"/>
		</g>
		<g class="st2">
			<path class="st3" d="M416.3,728.4c4.7,5.6,8.9,11.7,12.8,18c3.9,6.3,7.4,12.8,10.7,19.5c6.5,13.4,11.6,27.5,15.1,42.1
				c3.5,14.6,5.4,29.8,5,45.1c-0.1,3.8-0.4,7.7-0.7,11.5l-1.3,10.9c-0.8,7.1-1.6,14.3-2.2,21.4c-0.6,7.1-1.1,14.3-1.5,21.4
				c-0.4,7.1-0.6,14.3-0.6,21.4c-0.1,14.2,0.5,28.4,2.3,42.4c1.8,14,4.8,27.8,10.1,40.8c2.6,6.5,5.8,12.8,9.8,18.7
				c4,5.9,8.7,11.4,14.2,16.3c-6.5-3.3-12.6-7.8-17.9-13.2c-5.3-5.3-9.9-11.5-13.8-18c-7.7-13.1-12.7-27.6-15.9-42.3
				c-0.8-3.7-1.5-7.4-2.1-11.1c-0.6-3.7-1.1-7.4-1.5-11.1c-0.9-7.4-1.4-14.9-1.7-22.3c-0.3-7.4-0.2-14.9,0-22.3
				c0.3-7.4,0.7-14.8,1.3-22.2c0.7-7.4,1.5-14.7,2.5-22l1.5-10.7c0.4-3.4,0.8-6.8,1-10.3c0.5-6.9,0.5-13.8,0.2-20.8
				c-0.2-3.5-0.4-7-0.8-10.5c-0.3-3.5-0.8-7-1.3-10.5c-2-14-5.4-27.8-9.6-41.6C427.5,755.3,422.4,741.7,416.3,728.4z"/>
		</g>
		<g class="st2">
			<path class="st3" d="M379.4,734c0,7.5-0.3,14.9-1,22.4c-0.6,7.5-1.5,14.9-2.5,22.3c-1.1,7.4-2.4,14.8-4,22.2
				c-0.8,3.7-1.7,7.4-2.7,11c-0.9,3.7-2.1,7.3-3.2,11l-3.5,10.5c-1.2,3.5-2.3,6.9-3.4,10.4c-2.1,6.9-4.1,13.9-5.8,20.8
				c-1.7,7-3.2,14-4.3,21c-1.2,7-2,14.1-2.4,21.1c-0.2,3.5-0.3,7.1-0.4,10.6c0,3.5,0.1,7,0.3,10.5c0.3,7,1.2,14,2.4,20.9
				c1.2,6.9,3.1,13.7,5.2,20.4c0.5,1.7,1.2,3.3,1.7,5c0.6,1.6,1.3,3.3,1.9,4.9c1.3,3.3,2.7,6.5,4.3,9.7
				c6.2,12.7,14.2,24.7,23.6,35.8c4.6,5.6,9.6,10.9,14.8,16.1c5.2,5.2,10.7,10.2,16.2,15.2c-13.3-6.8-25.9-15.2-37.2-25.3
				c-11.4-10.1-21.4-21.9-29.5-35.2c-8.1-13.2-13.9-27.9-17.4-43.2c-1.7-7.6-2.9-15.4-3.4-23.1c-0.6-7.8-0.6-15.6-0.1-23.3
				c0.5-7.7,1.4-15.4,2.8-23c0.7-3.8,1.5-7.5,2.4-11.3c0.9-3.7,1.8-7.4,2.9-11.1c2.1-7.3,4.5-14.6,7.2-21.6c1.3-3.5,2.7-7,4.2-10.5
				l4.4-10.2c2.8-6.6,5.4-13.4,7.8-20.3c1.2-3.5,2.4-6.9,3.5-10.4c1.2-3.5,2.2-7,3.3-10.5C371.7,762.7,375.5,748.4,379.4,734z"/>
		</g>
	</g>
	<g>
		<path class="st0" d="M400.6,155.1c-1.2,0-2.4-0.2-3.5-0.7c-4.8-1.9-7.1-7.4-5.2-12.2c18.1-44.8-6.6-77.1-7.7-78.4
			c-3.2-4-2.5-9.9,1.5-13.1c1.6-1.3,3.7-2,5.8-2c2.9,0,5.6,1.3,7.3,3.5c1.3,1.7,32.5,42.1,10.3,97c-1.3,3.2-4.3,5.5-7.7,5.8
			C401.2,155.1,400.9,155.1,400.6,155.1z"/>
		<g>
			<path d="M391.6,54c1.2,0,2.4,0.5,3.2,1.6c1.3,1.6,30.6,39.6,9.6,91.7c-0.6,1.5-1.9,2.4-3.4,2.5c-0.1,0-0.3,0-0.4,0
				c-0.5,0-1-0.1-1.5-0.3c-2.1-0.8-3.1-3.2-2.3-5.3c19.2-47.6-7.2-82.1-8.4-83.6c-1.4-1.8-1.1-4.3,0.7-5.7
				C389.8,54.3,390.7,54,391.6,54 M391.6,43.5C391.6,43.5,391.6,43.5,391.6,43.5c-3.3,0-6.5,1.1-9.1,3.1c-6.3,5-7.4,14.2-2.4,20.5
				c0,0.1,6.2,8,10,21c5,17.1,4,34.6-3.1,52.2c-3,7.5,0.6,16,8.1,19c1.7,0.7,3.6,1.1,5.5,1.1c0.5,0,1,0,1.5-0.1
				c5.4-0.6,10-4,12.1-9.1c9.5-23.7,10.9-48.5,3.9-71.8c-5.4-18-14-29.2-15-30.4C400.2,45.5,396.1,43.5,391.6,43.5L391.6,43.5z"/>
		</g>
	</g>
	<g>
		<g>
			<path class="st0" d="M393.8,596.2C393.8,596.2,393.8,596.2,393.8,596.2c-8.5,0-17.3-0.2-26.3-0.5c-57.5-2-105.3-9.8-142-23.1
				c-31.8-11.5-55.5-27.3-70.5-46.8c-2-2.6-4.1-5.2-6.1-7.7c-5.9-7.3-11.9-14.9-17.4-24c-11.7-19.3-18.4-41.1-21.6-70.7
				c-2-18.4-2.6-39.4-1.7-64.3c3.6-103.4,28-130,51.7-155.8c2.2-2.4,4.4-4.8,6.6-7.2c15-16.9,37.2-30.2,66-39.5
				c33-10.6,74.9-16,124.5-16c8.5,0,17.3,0.2,26.3,0.5C491,144.8,562.2,168.3,595,211c25.8,33.4,48.7,70.7,47,159.2
				c0,2.4-0.1,5-0.2,7.5c-1.1,31.5-4.8,58.1-11.5,81.3c-11.3,39.7-29.3,62.1-46.8,81.8C550.9,577.5,487,596.2,393.8,596.2z"/>
			<path d="M357.1,145.9c8.4,0,17.1,0.2,26.1,0.5c122.4,4.3,181.5,34,207.6,67.8c23.2,30.1,47.7,66.3,45.9,155.9
				c0,2.4-0.1,4.9-0.2,7.4c-1.2,33.1-5.3,59.1-11.3,80c-11.1,39-28.8,60.7-45.7,79.7c-26.3,29.6-80.6,53.7-185.7,53.7
				c-8.4,0-17.1-0.2-26.1-0.5c-122.4-4.3-182.4-34-208.5-67.9c-7.9-10.2-16-19.4-23.2-31.2c-9.5-15.6-17.3-35.6-20.9-68.5
				c-1.9-17.3-2.6-38-1.7-63.6c3.9-110.8,31-130.6,56.9-159.7C196.8,169.9,251.8,145.9,357.1,145.9 M357.1,135.3
				c-50.2,0-92.7,5.5-126.1,16.2c-29.7,9.5-52.7,23.3-68.3,41c-2.1,2.4-4.4,4.8-6.5,7.2c-12.2,13.3-24.8,27.1-34.7,51
				c-10.9,26.3-16.7,60.7-18.4,108.2c-0.9,25.1-0.3,46.4,1.7,65.1c3.3,30.4,10.2,52.8,22.3,72.8c5.7,9.3,11.8,17,17.8,24.5
				c2,2.5,4,5.1,6,7.6c15.6,20.3,40.1,36.6,72.8,48.5C261,591,309.4,598.9,367.4,601c9,0.3,17.9,0.5,26.4,0.5
				c94.8,0,159.9-19.3,193.6-57.2c17.9-20.1,36.3-43.1,47.9-83.8c6.7-23.6,10.6-50.6,11.7-82.5c0.1-2.7,0.1-5.4,0.2-7.5
				c0.8-41.7-3.8-75.7-14.2-104.1c-9.4-25.6-21.9-42.9-33.9-58.5c-15.6-20.3-40-36.6-72.4-48.5c-37-13.5-85.2-21.4-143.2-23.4
				C374.6,135.5,365.7,135.3,357.1,135.3L357.1,135.3z"/>
		</g>
		<path class="st1" d="M136.1,491.4c7.2,11.8,15.3,21,23.2,31.2c26.1,33.9,86,63.6,208.5,67.9c122.4,4.3,183.4-21.3,211.8-53.2
			c16.9-19,34.5-40.7,45.7-79.7c-2.1,2.8-4.3,5.6-6.6,8.3c-19.8,23.5-45,42.1-71.2,58.2c13.9-31,23.8-63.8,29.5-97.3
			c-21.2,47.1-66.3,82.6-117.1,92.2c5-24.6,5.1-50.2,0.4-74.8c-12.3,29.9-25.5,44.1-54.9,57.7c1.5-29.3-18.7-66.9-38.3-82.6
			c-13.3,16.4-30,56.4-31,84.5c-27-8.5-36.8-43.3-44.2-70.6c-4.3,21.5,2.1,52.8,11.8,72.5c-32.7-16.8-73.3-37.2-83.9-72.4
			c-7.3,31,1.7,65.3,23.3,88.7c-41.8-10.6-78.6-39.4-99-77.4c1.7,33,18.5,64.8,44.8,84.7C174.1,524,155.1,508.8,136.1,491.4z"/>
		<path class="st1" d="M115.3,422.9c3.8-51.1,13.1-101.8,42.1-143.1c-2.9,51.5,3.7,103.5,19.3,152.6c-2.5-34.9,2.2-70.2,13.7-103.2
			c6.9-19.8,18.4-40.7,38.5-46.5c-8.5,43.3-1.6,89.5,19.3,128.4c0.9-46.1,17.1-91.8,45.3-128.3c-5.6,37.7-9.7,57.1-3,94.6
			c1.7,9.4,10.4,39.8,19.8,41.1c-3.1-52.7,6.8-108.4,40-149.3c4.2-5.2,14.6-21.6,14.6-21.6s11.4,17.8,14.6,22.6
			c27.3,41.6,43,90.8,44.7,140.5c31.2-49.6,29.1-103.2,23.9-161.5c7.9,10,14.4,36,17.2,48.4c11.6,51.4,13.2,82,10.6,134.6
			c36.5-50.5,49.8-117.1,35.4-177.8c45.2,30.9,61,89.8,66.8,144.3c12.1-41.4,16.4-85,12.5-128c21.8,29.7,37.5,63.8,46,99.6
			c1.8-89.6-22.7-125.8-45.9-155.9c-26.1-33.9-85.2-63.6-207.6-67.8c-122.4-4.3-184.3,21.2-212.7,53.2
			c-25.9,29.2-53.1,48.9-56.9,159.7C112.7,384.8,113.4,405.6,115.3,422.9z"/>
		<g class="st2">
			<path class="st3" d="M593.2,232c3.9,6.4,7.3,13.2,10.4,20c3.1,6.8,5.9,13.8,8.5,20.9c5.1,14.2,9.2,28.8,12.3,43.6
				c1.5,7.4,2.8,14.9,3.8,22.5c1,7.5,1.7,15.1,2.1,22.8c0.4,7.6,0.4,15.3,0.2,22.9c-0.3,7.7-0.8,15.3-1.7,22.9
				c-3.6,30.5-13.1,60.6-28.6,87l-3,4.9l-3.1,4.8l-1.6,2.4l-1.7,2.3c-1.1,1.6-2.2,3.1-3.4,4.6c-4.6,6.1-9.5,11.9-14.7,17.5
				c-5.3,5.5-10.7,10.8-16.5,15.6c-5.7,4.9-11.8,9.3-18.1,13.5c10-11.2,19.5-22.5,27.9-34.5c2.1-3,4.2-6,6.1-9.1
				c2-3,3.8-6.2,5.7-9.3c3.6-6.3,7.1-12.7,10.1-19.2c12.4-26.1,20-54.1,23.4-82.7c0.9-7.1,1.5-14.3,1.8-21.6
				c0.4-7.2,0.5-14.5,0.4-21.7c-0.1-7.3-0.4-14.5-0.8-21.8c-0.5-7.3-1.1-14.5-2-21.8c-1.7-14.5-4.1-29-7-43.5
				C600.9,260.8,597.4,246.4,593.2,232z"/>
		</g>
		<g class="st2">
			<path class="st3" d="M523.2,229.5c3.9,6.4,7.3,13.2,10.4,20c3.1,6.8,5.9,13.8,8.5,20.9c5.1,14.2,9.2,28.8,12.3,43.6
				c1.5,7.4,2.8,14.9,3.8,22.5c1,7.5,1.7,15.1,2.1,22.8c0.4,7.6,0.4,15.3,0.2,22.9c-0.3,7.7-0.8,15.3-1.7,22.9
				c-3.6,30.5-13.1,60.6-28.6,87l-3,4.9l-3.1,4.8l-1.6,2.4l-1.7,2.3c-1.1,1.6-2.2,3.1-3.4,4.6c-4.6,6.1-9.5,11.9-14.7,17.5
				c-5.3,5.5-10.7,10.8-16.5,15.6c-5.7,4.9-11.8,9.3-18.1,13.5c10-11.2,19.5-22.5,27.9-34.5c2.1-3,4.2-6,6.1-9.1
				c2-3,3.8-6.2,5.7-9.3c3.6-6.3,7.1-12.7,10.1-19.2c12.4-26.1,20-54.1,23.4-82.7c0.9-7.1,1.5-14.3,1.8-21.6
				c0.4-7.2,0.5-14.5,0.4-21.7c-0.1-7.3-0.4-14.5-0.8-21.8c-0.5-7.3-1.1-14.5-2-21.8c-1.7-14.5-4.1-29-7-43.5
				C530.9,258.3,527.4,243.9,523.2,229.5z"/>
		</g>
		<g class="st2">
			<path class="st3" d="M409.7,225.6c4.1,6.1,7.6,12.6,10.8,19.2c3.2,6.6,6,13.4,8.6,20.3c5.1,13.8,9.1,28.1,12.1,42.6
				c5.8,29,7.6,59,4.8,88.7c-0.6,7.4-1.7,14.8-2.7,22.1l-2.1,11c-0.6,3.7-1.5,7.3-2.4,10.9l-1.3,5.4l-0.7,2.7
				c-0.2,0.9-0.5,1.8-0.8,2.7c-1,3.6-2.1,7.1-3.2,10.7c-0.3,0.9-0.5,1.8-0.8,2.7l-0.9,2.6l-1.8,5.2l-1.9,5.2c-0.3,0.9-0.6,1.7-1,2.6
				l-1.1,2.6c-2.8,6.8-5.6,13.7-8.9,20.3l-2.4,5c-0.8,1.6-1.6,3.3-2.5,4.9l-5.4,9.6l-2.7,4.8c-1,1.6-1.9,3.1-2.9,4.7
				c-2,3.1-4,6.2-6,9.2l-1.5,2.3l-1.6,2.2l-3.3,4.4c-2.2,2.9-4.4,5.9-6.6,8.7c1.4-3.4,2.9-6.7,4.4-10.1l2.2-5l1.1-2.5l1-2.5
				c1.4-3.4,2.8-6.7,4.2-10l2.1-5l1.9-5.1l3.9-10.1c1.3-3.4,2.4-6.8,3.5-10.2l1.8-5.1c0.3-0.8,0.6-1.7,0.9-2.5l0.8-2.6
				c1-3.4,2.1-6.8,3.1-10.2l0.8-2.5c0.3-0.9,0.5-1.7,0.7-2.6l1.4-5.2l1.4-5.1l0.7-2.6c0.2-0.9,0.4-1.7,0.6-2.6
				c0.8-3.5,1.6-6.9,2.4-10.4c0.2-0.9,0.4-1.7,0.6-2.6l0.5-2.6l1-5.2c1.5-6.9,2.5-14,3.6-20.9c0.9-7,1.9-14,2.4-21.1
				c2.7-28.2,2.2-56.6-0.9-84.9c-1.6-14.2-3.8-28.3-6.8-42.3C417.9,253.4,414.4,239.4,409.7,225.6z"/>
		</g>
		<g class="st2">
			<path class="st3" d="M166.9,217.1c-5.2,14-9.7,28.2-13.6,42.4c-3.9,14.2-7.3,28.5-10,42.9c-1.4,7.2-2.5,14.4-3.5,21.6
				c-0.9,7.2-1.8,14.4-2.4,21.7c-0.6,7.2-1,14.5-1.1,21.7c-0.1,7.2-0.1,14.4,0.3,21.6c1.4,28.8,7,57.2,17.6,84.1
				c2.6,6.7,5.6,13.3,8.8,19.9c1.6,3.2,3.3,6.5,5.1,9.7c1.7,3.2,3.6,6.4,5.4,9.5c7.5,12.6,16.2,24.6,25.4,36.4
				c-5.9-4.6-11.7-9.4-17.1-14.7c-5.5-5.2-10.5-10.9-15.4-16.7c-4.8-5.9-9.3-12-13.5-18.5c-1.1-1.6-2-3.2-3-4.9l-1.5-2.5l-1.4-2.5
				l-2.8-5l-2.6-5.1c-13.7-27.5-21.1-58.2-22.5-88.8c-0.4-7.7-0.4-15.3-0.1-23c0.3-7.6,0.9-15.3,1.8-22.9c1-7.6,2.1-15.1,3.7-22.6
				c1.5-7.5,3.3-14.8,5.3-22.2c4.1-14.6,9.2-28.9,15.3-42.7c3.1-6.9,6.3-13.7,9.9-20.3C158.8,229.8,162.6,223.3,166.9,217.1z"/>
		</g>
		<g class="st2">
			<path class="st3" d="M236.9,219.6c-5.2,14-9.7,28.2-13.6,42.4c-3.9,14.2-7.3,28.5-10,42.9c-1.4,7.2-2.5,14.4-3.5,21.6
				c-0.9,7.2-1.8,14.4-2.4,21.7c-0.6,7.2-1,14.5-1.1,21.7c-0.1,7.2-0.1,14.4,0.3,21.6c1.4,28.8,7,57.2,17.6,84.1
				c2.6,6.7,5.6,13.3,8.8,19.9c1.6,3.2,3.3,6.5,5.1,9.7c1.7,3.2,3.6,6.4,5.4,9.5c7.5,12.6,16.2,24.6,25.4,36.4
				c-5.9-4.6-11.7-9.4-17.1-14.7c-5.5-5.2-10.5-10.9-15.4-16.7c-4.8-5.9-9.3-12-13.5-18.5c-1.1-1.6-2-3.2-3-4.9l-1.5-2.5l-1.4-2.5
				l-2.8-5l-2.6-5.1c-13.7-27.5-21.1-58.2-22.5-88.8c-0.4-7.7-0.4-15.3-0.1-23c0.3-7.6,0.9-15.3,1.8-22.9c1-7.6,2.1-15.1,3.7-22.6
				c1.5-7.5,3.3-14.8,5.3-22.2c4.1-14.6,9.2-28.9,15.3-42.7c3.1-6.9,6.3-13.7,9.9-20.3C228.7,232.2,232.6,225.7,236.9,219.6z"/>
		</g>
		<g class="st2">
			<path class="st3" d="M350.4,223.5c-5.6,13.5-10.1,27.2-14.1,41c-3.9,13.8-7.1,27.8-9.7,41.8c-5.1,28-7.5,56.4-6.8,84.7
				c0,7.1,0.6,14.1,0.9,21.2c0.7,7,1.1,14.1,2.1,21.1l0.6,5.3l0.3,2.6c0.1,0.9,0.3,1.7,0.4,2.6c0.6,3.5,1.1,7,1.7,10.5
				c0.1,0.9,0.3,1.8,0.4,2.6l0.5,2.6l1.1,5.2l1,5.2c0.2,0.9,0.3,1.8,0.5,2.6l0.6,2.6c0.8,3.5,1.6,6.9,2.4,10.4l0.6,2.6
				c0.2,0.9,0.5,1.7,0.7,2.6l1.4,5.2c0.9,3.5,1.8,6.9,2.8,10.4l3.2,10.3l1.5,5.2l1.8,5.1c1.2,3.4,2.3,6.8,3.5,10.3l0.9,2.6l1,2.5
				l1.9,5.1c1.2,3.4,2.5,6.8,3.6,10.3c-2.1-3-4-6.1-6-9.2l-2.9-4.6l-1.5-2.3l-1.4-2.4c-1.8-3.2-3.5-6.4-5.3-9.6
				c-0.9-1.6-1.8-3.2-2.6-4.9l-2.4-5l-4.7-10c-0.8-1.7-1.4-3.4-2.1-5.1l-2.1-5.1c-2.9-6.8-5.2-13.8-7.5-20.8l-0.9-2.6
				c-0.3-0.9-0.5-1.8-0.8-2.7l-1.5-5.3l-1.5-5.4l-0.7-2.7c-0.2-0.9-0.4-1.8-0.6-2.7c-0.8-3.6-1.6-7.2-2.4-10.9
				c-0.2-0.9-0.4-1.8-0.6-2.7l-0.5-2.7l-0.9-5.5c-0.6-3.7-1.3-7.3-1.6-11l-1.3-11.1c-0.5-7.4-1.1-14.8-1.2-22.3
				c-0.7-29.7,3.1-59.6,10.9-88.1c4-14.3,8.9-28.2,15-41.7c3.1-6.7,6.4-13.3,10-19.7C341.9,235.5,345.9,229.3,350.4,223.5z"/>
		</g>
		<path class="st4" d="M430.6,205.9c0,0,75.8,140.3-5.3,333.5"/>
		<path class="st4" d="M538.1,192.4c0,0,42.6,78.1,39.7,169.4c-4.3,134.9-64.5,190.9-107.2,208.6"/>
		<path class="st4" d="M330.9,202.4c0,0-83.2,146.2-17.9,333"/>
		<path class="st4" d="M224.7,181.5c0,0-48,75-51.4,166.2c-5.1,134.9,51.1,195,92.5,215.6"/>
		<g>
			<path class="st5" d="M391.7,188.3c-3.4,0-6.9-0.1-10.4-0.2c-19.9-0.7-39.5-3.4-56.7-7.8l-56.1-2c-2.9-0.1-5.2-2.5-5.1-5.4
				l1.3-37.9c0.8-24,38.2-27.9,50.5-29.2c8-0.9,17.3-1.4,27.5-1.6c3.9-0.1,8.1-0.1,12.5-0.1c8.8,0,18.3,0.2,29,0.6
				c15.3,0.5,28.3,1.3,39.6,2.3c0.5,0,0.9,0.1,1.2,0.1c0.1,0,0.2,0,0.3,0c9.9,0.9,18.4,2,25.9,3.3c0.8,0.1,1.6,0.3,2.3,0.4
				c12,2.1,48.5,8.7,47.7,32.5l-1.3,37.9c0,1.4-0.6,2.7-1.7,3.7c-1,0.9-2.3,1.4-3.6,1.4c-0.1,0-56.3-2-56.3-2
				C423.9,186.9,408.2,188.3,391.7,188.3C391.7,188.3,391.7,188.3,391.7,188.3z"/>
			<g>
				<path d="M355.2,109.3c9.2,0,18.9,0.2,28.8,0.6c13.8,0.5,27.1,1.2,39.3,2.3c0.5,0.1,1,0.1,1.5,0.1c9.2,0.8,17.7,1.9,25.5,3.2
					c0.8,0.1,1.5,0.3,2.3,0.4c26.8,4.8,43.9,13,43.4,27.2l-1.3,37.9l-56.6-2c-13.9,2.6-29.7,4.1-46.4,4.1c-3.4,0-6.8-0.1-10.2-0.2
					c-20.5-0.7-39.7-3.5-56.1-7.8l-56.6-2l1.3-37.9c0.5-14.3,18.4-21.3,45.8-24.2c8.2-0.9,17.3-1.4,27.1-1.5
					C346.9,109.3,351,109.3,355.2,109.3 M355.2,98.7c-4.4,0-8.6,0-12.6,0.1c-10.5,0.2-19.6,0.7-27.9,1.6
					c-15.8,1.7-27.8,4.5-36.5,8.8c-15,7.3-18.4,17.9-18.7,25.4l-1.3,37.9c-0.2,5.8,4.3,10.7,10.1,10.9l55.5,1.9
					c17.4,4.4,37.2,7.2,57.3,7.9c3.5,0.1,7.1,0.2,10.5,0.2c16.6,0,32.5-1.4,47.2-4l55.5,1.9c0.1,0,0.2,0,0.4,0
					c5.6,0,10.3-4.5,10.5-10.2l1.3-37.9c0.3-7.5-2.4-18.2-16.7-26.5c-8.3-4.8-19.9-8.5-35.4-11.3c-0.7-0.1-1.5-0.3-2.2-0.4l-0.1,0
					c-7.6-1.3-16.2-2.4-26.3-3.3c-0.2,0-0.4,0-0.6,0c-0.2,0-0.6-0.1-0.8-0.1c-0.1,0-0.1,0-0.2,0c-11.5-1-24.5-1.8-39.9-2.3
					C373.6,98.9,364.1,98.7,355.2,98.7L355.2,98.7z"/>
			</g>
		</g>
		<g>
			<path class="st5" d="M559.4,239c-11.1,0-21.3-5-28.2-13.7L519.1,210c-4.9-6.1-12.1-9.7-20-9.7c-7.2,0-13.9,3-18.8,8.3l-13.2,14.5
				c-6.8,7.5-16.5,11.7-26.6,11.7c-11.1,0-21.3-5-28.2-13.7l-12.2-15.4c-4.9-6.1-12.1-9.7-20-9.7c-7.2,0-13.9,3-18.8,8.3L348.2,219
				c-6.8,7.5-16.5,11.7-26.6,11.7c-11.1,0-21.3-5-28.2-13.7l-12.2-15.4c-4.9-6.1-12.1-9.7-20-9.7c-7.2,0-13.9,2.9-18.8,8.3
				l-13.2,14.5c-6.8,7.5-16.5,11.7-26.6,11.7c0,0,0,0,0,0c-11.1,0-21.4-5-28.2-13.7l-8.1-10.2c-1.6-2-1.5-4.8,0.2-6.7
				c1-1.1,2-2.2,3.3-3.5c1.3-1.3,2.8-2.8,4.5-4.3c0.7-0.6,1.4-1.3,2.2-1.9c35-30.3,95.7-45.6,180.5-45.6c8.5,0,17.3,0.2,26.3,0.5
				c96.1,3.3,163.3,22.6,200,57.2c0.8,0.7,1.6,1.5,2.4,2.3c1.6,1.6,3.1,3.2,4.4,4.7c1.7,1.8,3.2,3.7,4.7,5.6c1.5,2,1.4,4.8-0.3,6.7
				l-8.7,9.6C579.2,234.8,569.5,239,559.4,239z"/>
			<g>
				<path d="M357.1,145.9c8.4,0,17.1,0.2,26.1,0.5c107.7,3.7,166.3,27.2,196.6,55.8c0.8,0.7,1.5,1.4,2.2,2.1c1.5,1.5,2.9,3,4.3,4.5
					c1.6,1.8,3.1,3.5,4.5,5.3l-8.7,9.6c-6.1,6.7-14.4,10-22.7,10c-9,0-18-3.9-24.1-11.7l-12.2-15.4c-6.1-7.7-15.1-11.7-24.1-11.7
					c-8.3,0-16.6,3.3-22.7,10l-13.2,14.5c-6.1,6.7-14.4,10-22.7,10c-9,0-18-3.9-24.1-11.7l-12.2-15.4c-6.1-7.7-15.1-11.7-24.1-11.7
					c-8.3,0-16.6,3.3-22.7,10l-13.2,14.5c-6.1,6.7-14.4,10-22.7,10c-9,0-18-3.9-24.1-11.7l-12.2-15.4c-6.1-7.7-15.1-11.7-24.1-11.7
					c-8.3,0-16.6,3.3-22.7,10l-13.2,14.6c-6.1,6.7-14.4,10-22.7,10c-9,0-18-3.9-24.1-11.7l-8.1-10.2c1-1.1,2-2.2,3.1-3.3
					c1.4-1.4,2.8-2.8,4.3-4.1c0.7-0.6,1.3-1.2,2-1.8C209.1,165.1,263,145.9,357.1,145.9 M357.1,135.3c-86,0-147.9,15.8-184,46.9
					c-0.8,0.7-1.6,1.4-2.3,2c-1.8,1.6-3.4,3.2-4.7,4.5c0,0,0,0-0.1,0.1c-1.3,1.4-2.4,2.5-3.5,3.7c-3.3,3.8-3.5,9.5-0.4,13.5
					l8.1,10.2c7.9,10,19.7,15.7,32.4,15.7c11.6,0,22.7-4.9,30.5-13.5l13.2-14.5c3.9-4.2,9.1-6.6,14.9-6.6c6.2,0,12,2.8,15.9,7.7
					l12.2,15.4c7.9,9.9,19.7,15.6,32.3,15.6c11.6,0,22.7-4.9,30.5-13.5l13.2-14.5c3.9-4.3,9.2-6.6,14.9-6.6c6.2,0,12,2.8,15.9,7.7
					l12.2,15.4c7.9,9.9,19.7,15.6,32.3,15.6c11.6,0,22.7-4.9,30.5-13.5l13.2-14.5c3.9-4.3,9.2-6.6,14.9-6.6c6.2,0,12,2.8,15.8,7.7
					l12.2,15.4c7.9,9.9,19.7,15.6,32.3,15.6c11.6,0,22.7-4.9,30.5-13.5l8.7-9.6c3.4-3.8,3.7-9.4,0.6-13.5c-1.6-2-3.2-4-5-6
					c-1.4-1.6-2.9-3.1-4.6-4.9c-0.9-0.9-1.8-1.8-2.6-2.5c-37.6-35.5-106-55.2-203.4-58.6C374.6,135.5,365.7,135.3,357.1,135.3
					L357.1,135.3z"/>
			</g>
		</g>
		<path class="st1" d="M170.5,199.5l8.1,10.2c11.8,14.9,34,15.6,46.8,1.6l13.2-14.6c12.7-14,35-13.2,46.8,1.7l12.2,15.4
			c11.8,14.9,34,15.6,46.8,1.6l13.2-14.5c12.7-14,35-13.2,46.8,1.6l12.2,15.4c11.8,14.9,34,15.6,46.8,1.6l13.2-14.5
			c12.8-14,35-13.2,46.8,1.6l12.2,15.4c11.8,14.9,34,15.6,46.8,1.6l8.7-9.6c-1.4-1.8-2.9-3.6-4.5-5.3c-1.3-1.5-2.8-3-4.3-4.5
			c-0.7-0.7-1.5-1.5-2.2-2.1c-3.9,4.8-9.2,8.4-15.2,9.9c-9.4,2.3-19.9-0.7-26.6-7.6c2.4,2.9,4.1,6.4,4.6,10.1
			c-14.3-14.6-32.5-30.5-52.5-26c-15.9,3.7-26.8,19.5-42.8,23c4.6-3.2,8.2-7.7,10.3-12.9c-8,4.8-17.1,8.5-26.4,7.4
			c-18.7-2.2-31.5-22.7-50.3-24.5c-22.4-2.2-41.3,23.2-63.5,19.3c5.4,3.2,12.2,3.9,18.1,2c-8.9,9.6-25.4,5-35.6-3.3
			c-10.2-8.3-18.4-19.8-30.9-24c-12.1-4.1-26.5,0.2-34.3,10.3c3.6-0.6,7.2-1.3,10.8-1.9c-11.4,8.3-23.2,16.8-36.9,20.7
			c-10.7,3-21.7-4.3-30.8-12.5c-1.5,1.4-2.9,2.7-4.3,4.1C172.5,197.3,171.5,198.4,170.5,199.5z"/>
		<g>
			<g>
				<path class="st6" d="M440.6,220.4c-6.6-0.2-11.8-5.8-11.5-12.4c0-0.9,0.2-1.7,0.4-2.6c1.3-5.2,6.1-9,11.5-9c0.1,0,0.3,0,0.4,0
					c5.2,0.2,9.6,3.6,11,8.5c0.4,1.2,0.6,2.5,0.5,3.9c-0.2,6.5-5.5,11.5-11.9,11.5C441,220.4,440.7,220.4,440.6,220.4z"/>
				<g>
					<path d="M441,200c0.1,0,0.2,0,0.3,0c3.7,0.1,6.8,2.7,7.8,6c0.3,0.9,0.4,1.8,0.4,2.7c-0.2,4.6-3.9,8.2-8.4,8.2
						c-0.1,0-0.2,0-0.3,0c-4.7-0.2-8.3-4.1-8.1-8.7c0-0.6,0.1-1.2,0.3-1.8C433.7,202.7,437.1,200,441,200 M441,193
						c-7.1,0-13.2,4.8-14.9,11.6c-0.3,1.1-0.5,2.2-0.5,3.3c-0.1,4.1,1.3,8.1,4.1,11.1c2.8,3,6.6,4.8,10.8,4.9c0.2,0,0.4,0,0.5,0
						c8.4,0,15.1-6.6,15.4-14.9c0.1-1.8-0.2-3.5-0.7-5c-1.9-6.3-7.6-10.7-14.2-10.9C441.3,193,441.2,193,441,193L441,193z"/>
				</g>
			</g>
			<path class="st7" d="M432.5,208.1c-0.2,4.7,3.5,8.6,8.1,8.7c4.7,0.2,8.6-3.5,8.7-8.1c0-0.9-0.1-1.9-0.4-2.7
				c-0.7,1.2-1.7,2.3-2.9,3.1c-1.7,1-3.9,1.2-5.7,0.4c1,1.6,3,2.1,4.9,2.6c-0.9,0.4-2,0.4-3,0.4c-1.4,0-2.8-0.2-4-0.7
				c-2.4-0.9-4.2-2.9-5.4-5.1c0-0.1-0.1-0.1-0.1-0.2C432.7,206.9,432.6,207.5,432.5,208.1z"/>
			<g>
				
					<ellipse transform="matrix(3.479111e-02 -0.9994 0.9994 3.479111e-02 222.9507 636.2316)" class="st3" cx="440.9" cy="202.7" rx="1.3" ry="2.8"/>
			</g>
		</g>
		<g>
			<g>
				<path class="st6" d="M560.6,225.7c-3.2-0.1-6.1-1.5-8.3-3.8s-3.3-5.4-3.2-8.6c0-0.9,0.2-1.7,0.4-2.6c1.3-5.2,6.1-9,11.5-9
					c0.1,0,0.3,0,0.4,0c5.2,0.2,9.6,3.6,11,8.5c0.4,1.2,0.6,2.5,0.5,3.9c-0.2,6.5-5.5,11.5-11.9,11.5
					C561.1,225.7,560.8,225.7,560.6,225.7z"/>
				<g>
					<path d="M561,205.3c0.1,0,0.2,0,0.3,0c3.7,0.1,6.8,2.7,7.8,6c0.3,0.9,0.4,1.8,0.4,2.7c-0.2,4.6-3.9,8.2-8.4,8.2
						c-0.1,0-0.2,0-0.3,0c-4.7-0.2-8.3-4.1-8.1-8.7c0-0.6,0.1-1.2,0.3-1.8C553.8,208,557.1,205.3,561,205.3 M561,198.2
						c-7.1,0-13.2,4.8-14.9,11.6c-0.3,1.1-0.5,2.2-0.5,3.3c-0.3,8.5,6.4,15.7,14.9,16c0.2,0,0.4,0,0.5,0c8.4,0,15.1-6.6,15.4-14.9
						c0.1-1.8-0.2-3.5-0.7-5c-1.9-6.3-7.6-10.7-14.2-10.9C561.4,198.2,561.2,198.2,561,198.2L561,198.2z"/>
				</g>
			</g>
			<path class="st7" d="M552.6,213.4c-0.2,4.7,3.5,8.6,8.1,8.7c4.7,0.2,8.6-3.5,8.7-8.1c0-0.9-0.1-1.9-0.4-2.7
				c-0.7,1.2-1.7,2.3-2.9,3.1c-1.7,1-3.9,1.2-5.7,0.4c1,1.6,3,2.1,4.9,2.6c-0.9,0.4-2,0.4-3,0.4c-1.4,0-2.8-0.2-4-0.7
				c-2.4-0.9-4.2-2.9-5.4-5.1c0-0.1-0.1-0.1-0.1-0.2C552.7,212.2,552.6,212.8,552.6,213.4z"/>
			<g>
				
					<ellipse transform="matrix(3.479111e-02 -0.9994 0.9994 3.479111e-02 333.5513 761.3019)" class="st3" cx="560.9" cy="208" rx="1.3" ry="2.8"/>
			</g>
		</g>
		<g>
			<path class="st5" d="M395.4,632.8C395.4,632.8,395.4,632.8,395.4,632.8c-8.9,0-18.6-0.2-29.6-0.6c-77.1-2.7-110.8-12-116.3-32.3
				c-0.1-0.5-0.2-1-0.2-1.6l1.5-42.6c0-0.5,0.1-1,0.3-1.5c4.1-11.8,18.1-18.9,43.9-22.3c9.9-1.3,21.5-2.1,35.6-2.3
				c2.9,0,5.9-0.1,8.9-0.1c9,0,19.1,0.2,29.9,0.6c12.6,0.4,22.8,1,32,1.7c15.8,1.2,28.8,2.7,39.7,4.8c27,5.1,41.2,13.3,44.6,25.8
				c0.1,0.5,0.2,1,0.2,1.6l-1.5,42.6c0,0.5-0.1,1.1-0.3,1.6C478.2,625.1,450.8,632.8,395.4,632.8z"/>
			<g>
				<path d="M339.5,534.7c9.5,0,19.4,0.2,29.7,0.6c11.1,0.4,21.8,0.9,31.8,1.7c14.5,1.1,27.7,2.6,39.1,4.8
					c22.4,4.3,37.6,11.1,40.6,22l-1.5,42.6c-5.8,16.5-39.5,21.2-83.8,21.2c-9.4,0-19.2-0.2-29.4-0.6c-58.2-2-105.9-8-111.4-28.4
					l1.5-42.6c3.6-10.3,18.2-16,39.6-18.9c10.3-1.4,22.1-2,35-2.3C333.6,534.7,336.5,534.7,339.5,534.7 M339.5,524.2
					c-3.1,0-6.1,0-9,0.1c-14.3,0.2-26.1,1-36.2,2.3c-17.6,2.3-41.8,7.6-48.2,25.8c-0.3,1-0.5,2-0.6,3.1l-1.5,42.6
					c0,1.1,0.1,2.1,0.4,3.1c7.3,26.8,53.7,33.8,121.2,36.2c11,0.4,20.8,0.6,29.7,0.6c25.2,0,44.4-1.5,58.6-4.7
					c19.6-4.3,31.1-12,35.1-23.6c0.3-1,0.5-2,0.6-3.1l1.5-42.6c0-1.1-0.1-2.1-0.4-3.1c-5.2-19.2-30.3-26.1-48.7-29.6
					c-11.1-2.1-24.3-3.7-40.3-4.9c-9.3-0.7-19.5-1.2-32.2-1.7C358.8,524.4,348.6,524.2,339.5,524.2L339.5,524.2z"/>
			</g>
		</g>
		<g>
			<path class="st8" d="M383.4,632.5c-5.8,0-11.6-0.1-17.5-0.3c-30.4-1.1-58.9-4.7-80.3-10.3c-24.7-6.5-36.5-14.4-36.2-24.3
				c0.2-5.7,4.6-10.6,13.1-14.6c4.7-2.2,10.7-4.1,18.5-5.9c18-4.1,42.7-6.3,69.5-6.3c5.8,0,11.7,0.1,17.5,0.3
				c33.3,1.2,64.8,5.5,86.4,12c7.6,2.3,13.5,4.6,18,7.2c8.2,4.5,12.3,9.7,12.1,15.4C483.6,631.2,400.1,632.5,383.4,632.5
				C383.4,632.5,383.4,632.5,383.4,632.5z"/>
			<g>
				<path d="M350.5,576.1c5.7,0,11.4,0.1,17.3,0.3c34.2,1.2,64.7,5.7,85.1,11.8c6.9,2.1,12.7,4.3,17,6.7c6.1,3.4,9.5,7,9.3,10.6
					c-0.4,12.6-42,21.7-95.8,21.7c-5.6,0-11.4-0.1-17.3-0.3c-62-2.2-111.9-15.2-111.4-29.2c0.1-3.7,3.7-7,10.1-10
					c4.5-2.1,10.4-3.9,17.4-5.5C299.3,578.4,323.3,576.1,350.5,576.1 M350.5,565.6c-27.2,0-52.3,2.3-70.6,6.4
					c-8.1,1.9-14.5,3.9-19.6,6.3c-10.4,4.8-15.9,11.3-16.1,19.1c-0.3,7.6,4.4,14.2,13.7,19.6c6.4,3.7,15.2,7,26.4,9.9
					c21.8,5.7,50.7,9.4,81.5,10.5c5.9,0.2,11.9,0.3,17.7,0.3c27,0,51.9-2.3,70.3-6.3c9.7-2.2,17.4-4.8,23.1-7.9
					c10.5-5.7,12.9-12.7,13.1-17.6c0.3-7.9-4.7-14.7-14.8-20.2c-4.9-2.7-11.1-5.2-19-7.6c-22.1-6.6-54.1-11.1-87.8-12.2
					C362.3,565.7,356.3,565.6,350.5,565.6L350.5,565.6z"/>
			</g>
		</g>
		<g>
			<path class="st9" d="M380.5,606.2c-4.5,0-9.1-0.1-13.7-0.2c-36.2-1.3-77.6-8-88.6-20.2c-1.2-1.4-1.7-3.3-1.1-5.1
				c0.6-1.8,2-3.1,3.9-3.5c18-4.1,42.7-6.3,69.5-6.3c5.8,0,11.7,0.1,17.5,0.3c33.3,1.2,64.8,5.5,86.4,12c1.8,0.5,3.2,2,3.6,3.8
				c0.4,1.8-0.1,3.7-1.4,5C445.8,602.5,410.2,606.2,380.5,606.2C380.5,606.2,380.5,606.2,380.5,606.2z"/>
			<g>
				<path d="M350.5,576.1c5.7,0,11.4,0.1,17.3,0.3c34.2,1.2,64.7,5.7,85.1,11.8c-7.8,7.6-36.6,12.7-72.4,12.7
					c-4.4,0-8.9-0.1-13.5-0.2c-41.8-1.5-76.6-9.3-84.8-18.5C299.3,578.4,323.3,576.1,350.5,576.1 M350.5,565.6
					c-27.2,0-52.3,2.3-70.6,6.4c-3.6,0.8-6.6,3.5-7.7,7.1c-1.1,3.6-0.3,7.4,2.2,10.2c5.7,6.4,17.3,11.4,35.4,15.4
					c16.3,3.6,35.9,5.8,56.9,6.6c4.6,0.2,9.3,0.2,13.9,0.2c18.1,0,34.9-1.3,48.5-3.7c15.5-2.7,25.7-6.7,31.2-12.1
					c2.7-2.6,3.8-6.4,2.9-10c-0.9-3.6-3.6-6.5-7.2-7.6c-22.1-6.6-54-11.1-87.7-12.2C362.3,565.7,356.3,565.6,350.5,565.6
					L350.5,565.6z"/>
			</g>
		</g>
		<g>
			<path d="M324.9,575.4c4.1,8,21.6,14.4,42.7,15.2c21.2,0.7,39.1-4.5,43.7-12.2c-10.3-5.1-25.6-8.7-42.9-9.3
				C351.1,568.5,335.5,571,324.9,575.4z"/>
		</g>
		<g>
			<path class="st0" d="M367.6,680.4c-1.5-0.1-3-0.5-4.3-1.2c-4.5-2.6-6-8.3-3.5-12.8c24-41.9,4-77.2,3.1-78.7
				c-2.6-4.4-1.1-10.2,3.3-12.8c1.4-0.8,3.1-1.3,4.7-1.3c3.3,0,6.4,1.8,8.1,4.6c1.1,1.9,26.4,46.1-3,97.5c-1.7,2.9-4.8,4.7-8.1,4.7
				C367.9,680.4,367.8,680.4,367.6,680.4z"/>
			<g>
				<path d="M371,578.9c1.4,0,2.8,0.7,3.5,2c1,1.8,24.9,43.4-3,92.2c-0.8,1.3-2.1,2.1-3.6,2.1c0,0-0.1,0-0.1,0
					c-0.6,0-1.3-0.2-1.9-0.5c-2-1.1-2.6-3.6-1.5-5.6c25.5-44.5,4-82.3,3.1-84c-1.1-1.9-0.5-4.5,1.5-5.6
					C369.6,579.1,370.3,578.9,371,578.9 M371,568.4c-2.6,0-5.2,0.7-7.4,2c-6.9,4.1-9.3,13-5.2,20c0,0.1,5,8.7,7,22.2
					c2.6,17.6-0.8,34.8-10.2,51.3c-4,7-1.6,15.9,5.4,19.9c2.1,1.2,4.4,1.8,6.7,1.9c0.2,0,0.3,0,0.5,0c5.2,0,10.1-2.8,12.7-7.3
					c12.7-22.1,17.4-46.5,13.7-70.6c-2.9-18.5-9.9-30.8-10.7-32.2C381,571.2,376.2,568.4,371,568.4L371,568.4z"/>
			</g>
		</g>
		<g>
			<g>
				<path class="st6" d="M199.9,213.1c-3.2-0.1-6.1-1.5-8.3-3.8s-3.3-5.4-3.2-8.6c0-0.9,0.2-1.7,0.4-2.6c1.3-5.2,6.1-9,11.5-9
					c0.1,0,0.3,0,0.4,0c5.2,0.2,9.6,3.6,11,8.5c0.4,1.2,0.6,2.5,0.5,3.9c-0.2,6.5-5.5,11.5-11.9,11.5
					C200.3,213.1,200,213.1,199.9,213.1z"/>
				<g>
					<path d="M200.3,192.7c0.1,0,0.2,0,0.3,0c3.7,0.1,6.8,2.7,7.8,6c0.3,0.9,0.4,1.8,0.4,2.7c-0.2,4.6-3.9,8.2-8.4,8.2
						c-0.1,0-0.2,0-0.3,0c-4.7-0.2-8.3-4.1-8.1-8.7c0-0.6,0.1-1.2,0.3-1.8C193,195.4,196.3,192.7,200.3,192.7 M200.3,185.7
						c-7.1,0-13.2,4.8-14.9,11.6c-0.3,1.1-0.5,2.2-0.5,3.3c-0.1,4.1,1.3,8.1,4.1,11.1c2.8,3,6.6,4.8,10.8,4.9c0.2,0,0.4,0,0.5,0
						c8.4,0,15.1-6.6,15.4-14.9c0.1-1.8-0.2-3.5-0.7-5c-1.9-6.3-7.6-10.7-14.2-10.9C200.6,185.7,200.5,185.7,200.3,185.7
						L200.3,185.7z"/>
				</g>
			</g>
			<path class="st7" d="M191.8,200.9c-0.2,4.7,3.5,8.6,8.1,8.7c4.7,0.2,8.6-3.5,8.7-8.1c0-0.9-0.1-1.9-0.4-2.7
				c-0.7,1.2-1.7,2.3-2.9,3.1c-1.7,1-3.9,1.2-5.7,0.4c1,1.6,3,2.1,4.9,2.6c-0.9,0.4-2,0.4-3,0.4c-1.4,0-2.8-0.2-4-0.7
				c-2.4-0.9-4.2-2.9-5.4-5.1c0-0.1-0.1-0.1-0.1-0.2C191.9,199.7,191.9,200.3,191.8,200.9z"/>
			<g>
				
					<ellipse transform="matrix(3.479111e-02 -0.9994 0.9994 3.479111e-02 -2.1111 388.6329)" class="st3" cx="200.1" cy="195.4" rx="1.3" ry="2.8"/>
			</g>
		</g>
		<g>
			<g>
				<path class="st6" d="M320,216.2c-3.2-0.1-6.1-1.5-8.3-3.8c-2.2-2.3-3.3-5.4-3.2-8.6c0-0.9,0.2-1.7,0.4-2.6c1.3-5.2,6.1-9,11.5-9
					c0.1,0,0.3,0,0.4,0c5.2,0.2,9.6,3.6,11,8.5c0.4,1.2,0.6,2.5,0.5,3.9c-0.2,6.5-5.5,11.5-11.9,11.5
					C320.4,216.2,320.1,216.2,320,216.2z"/>
				<g>
					<path d="M320.4,195.8c0.1,0,0.2,0,0.3,0c3.7,0.1,6.8,2.7,7.8,6c0.3,0.9,0.4,1.8,0.4,2.7c-0.2,4.6-3.9,8.2-8.4,8.2
						c-0.1,0-0.2,0-0.3,0c-4.7-0.2-8.3-4.1-8.1-8.7c0-0.6,0.1-1.2,0.3-1.8C313.1,198.5,316.4,195.8,320.4,195.8 M320.4,188.8
						c-7.1,0-13.2,4.8-14.9,11.6c-0.3,1.1-0.5,2.2-0.5,3.3c-0.1,4.1,1.3,8.1,4.1,11.1c2.8,3,6.6,4.8,10.8,4.9c0.2,0,0.4,0,0.5,0
						c8.4,0,15.1-6.6,15.4-14.9c0.1-1.8-0.2-3.5-0.7-5c-1.9-6.3-7.6-10.7-14.2-10.9C320.7,188.8,320.6,188.8,320.4,188.8
						L320.4,188.8z"/>
				</g>
			</g>
			<path class="st7" d="M311.9,203.9c-0.2,4.7,3.5,8.6,8.1,8.7c4.7,0.2,8.6-3.5,8.7-8.1c0-0.9-0.1-1.9-0.4-2.7
				c-0.7,1.2-1.7,2.3-2.9,3.1c-1.7,1-3.9,1.2-5.7,0.4c1,1.6,3,2.1,4.9,2.6c-0.9,0.4-2,0.4-3,0.4c-1.4,0-2.8-0.2-4-0.7
				c-2.4-0.9-4.2-2.9-5.4-5.1c0-0.1-0.1-0.1-0.1-0.2C312.1,202.7,312,203.3,311.9,203.9z"/>
			<g>
				
					<ellipse transform="matrix(3.479111e-02 -0.9994 0.9994 3.479111e-02 110.7372 511.6468)" class="st3" cx="320.3" cy="198.5" rx="1.3" ry="2.8"/>
			</g>
		</g>
		<g class="st2">
			<path class="st3" d="M553.5,188.8c-14.1-3.9-28.4-7.2-42.7-10.1c-14.3-3-28.7-5.4-43-7.6c-14.4-2.1-28.8-3.9-43.3-5.3l-10.9-0.9
				c-3.6-0.3-7.2-0.5-10.9-0.8l-5.4-0.4l-5.4-0.3c-3.6-0.2-7.2-0.4-10.9-0.5l-10.9-0.4l-10.9-0.1c-1.8,0-3.6-0.1-5.4-0.1l-5.4,0
				c-3.6,0.1-7.3,0-10.9,0.1l-10.9,0.3c-1.8,0-3.6,0.1-5.4,0.2l-5.4,0.3c-7.3,0.3-14.5,0.9-21.8,1.4c-29,2.3-57.9,6.5-86.7,11.9
				c27.7-9.6,56.6-16.2,85.8-20.2c7.3-0.9,14.6-1.9,22-2.4c3.7-0.3,7.3-0.7,11-0.9l11.1-0.6c14.7-0.6,29.5-0.8,44.3-0.2
				c3.7,0.1,7.4,0.4,11.1,0.6l5.5,0.3c1.8,0.1,3.7,0.3,5.5,0.4c3.7,0.3,7.4,0.6,11,1l11,1.2c14.6,1.8,29.2,4.1,43.7,7.1
				c14.4,2.9,28.7,6.5,42.9,10.7C526.1,178,540.1,182.7,553.5,188.8z"/>
		</g>
		<g class="st2">
			<path class="st3" d="M491.5,136.7c-2.2-0.6-4.4-1.1-6.7-1.6c-2.2-0.5-4.4-1-6.7-1.5c-4.4-0.9-8.9-1.8-13.3-2.6
				c-8.9-1.6-17.8-3-26.7-4.1c-8.9-1.1-17.9-2.1-26.8-2.8c-8.9-0.7-17.9-1.2-26.9-1.4c-9-0.3-17.9-0.3-26.9,0
				c-9,0.1-17.9,0.7-26.9,1.3c-18,1.3-35.9,3.5-54,6c17-6.7,34.9-11.3,53.1-14.2c9.1-1.4,18.2-2.5,27.4-3c4.6-0.4,9.2-0.4,13.8-0.6
				c4.6,0,9.2-0.1,13.8,0.1c4.6,0.1,9.2,0.4,13.8,0.7c4.6,0.4,9.2,0.7,13.8,1.3c9.1,1.1,18.2,2.6,27.2,4.5c9,2,17.9,4.4,26.6,7.3
				c4.4,1.5,8.7,3,12.9,4.8c2.1,0.9,4.2,1.8,6.3,2.7C487.4,134.6,489.5,135.5,491.5,136.7z"/>
		</g>
	</g>
	<g>
		<g>
			<path class="st6" d="M372.5,663c-0.3,0-0.6,0-0.9,0c-8.8-0.2-17-3.9-23.1-10.3s-9.3-14.8-9.1-23.6c0.1-2.3,0.4-4.7,1-7
				c3.6-14.8,16.8-25.2,32-25.2c0.3,0,0.6,0,0.9,0c14.3,0.4,26.6,9.7,30.7,23.3c1.1,3.2,1.6,6.8,1.5,10.7
				C405.1,648.9,390.5,663,372.5,663z"/>
			<g>
				<path d="M372.5,602.1c0.3,0,0.5,0,0.8,0c12.3,0.3,22.5,8.6,25.8,19.6c1,2.8,1.3,5.8,1.3,8.9c-0.4,15.1-12.7,27.1-27.8,27.1
					c-0.3,0-0.5,0-0.8,0c-15.3-0.4-27.5-13.2-27.1-28.6c0.1-2,0.3-3.9,0.8-5.9C348.4,611.1,359.4,602.1,372.5,602.1 M372.5,591.6
					c-17.7,0-33,12-37.1,29.2c-0.7,2.7-1.1,5.4-1.2,8.2c-0.6,21.1,16.2,38.8,37.3,39.4c0.3,0,0.7,0,1,0c10.1,0,19.6-3.9,26.8-10.9
					c7.2-7,11.3-16.4,11.5-26.4c0.1-4.4-0.5-8.6-1.8-12.4c-4.8-15.7-19-26.5-35.5-26.9C373.2,591.6,372.8,591.6,372.5,591.6
					L372.5,591.6z"/>
			</g>
		</g>
		<path class="st7" d="M344.7,629.2c-0.4,15.3,11.7,28.1,27.1,28.6c15.5,0.4,28.1-11.7,28.6-27.1c0.1-3.1-0.3-6.1-1.3-8.9
			c-2.3,4.1-5.5,7.7-9.6,10.1c-5.5,3.3-12.8,4.2-18.6,1.3c3.4,5.2,10.1,6.9,16.2,8.3c-3,1.2-6.5,1.3-9.7,1.4
			c-4.5-0.1-9.1-0.7-13.3-2.2c-7.8-3-14-9.4-18-16.7c-0.1-0.2-0.2-0.5-0.3-0.7C345,625.3,344.7,627.2,344.7,629.2z"/>
		<g>
			
				<ellipse transform="matrix(2.675850e-02 -0.9996 0.9996 2.675850e-02 -248.877 966.4286)" class="st3" cx="371.9" cy="611" rx="4.3" ry="9.3"/>
		</g>
	</g>
	<g>
		<g>
			<path class="st6" d="M370.8,724.9c-0.3,0-0.6,0-0.9,0c-8.8-0.2-17-3.9-23.1-10.3c-6.1-6.4-9.3-14.8-9.1-23.6c0.1-2.3,0.4-4.7,1-7
				c3.6-14.8,16.8-25.2,32-25.2c0.3,0,0.6,0,0.9,0c14.3,0.4,26.6,9.7,30.7,23.3c1.1,3.2,1.6,6.8,1.5,10.7
				C403.4,710.8,388.9,724.9,370.8,724.9C370.8,724.9,370.8,724.9,370.8,724.9z"/>
			<g>
				<path d="M370.8,664c0.3,0,0.5,0,0.8,0c12.3,0.3,22.5,8.6,25.8,19.6c1,2.8,1.3,5.8,1.3,8.9c-0.4,15.1-12.7,27.1-27.8,27.1
					c-0.3,0-0.5,0-0.8,0c-15.3-0.4-27.5-13.2-27.1-28.6c0.1-2,0.3-3.9,0.9-5.9C346.8,673.1,357.7,664,370.8,664 M370.8,653.5
					c-17.7,0-33,12-37.1,29.2c-0.7,2.7-1.1,5.4-1.2,8.2c-0.3,10.2,3.5,20,10.5,27.4c7,7.4,16.6,11.7,26.8,12c0.3,0,0.7,0,1,0
					c10.1,0,19.6-3.9,26.8-10.9c7.2-7,11.3-16.4,11.5-26.4c0.1-4.4-0.5-8.6-1.8-12.4c-4.8-15.7-19-26.5-35.5-26.9
					C371.5,653.5,371.1,653.5,370.8,653.5L370.8,653.5z"/>
			</g>
		</g>
		<path class="st7" d="M343,691.1c-0.4,15.3,11.7,28.1,27.1,28.6c15.5,0.4,28.1-11.7,28.6-27.1c0.1-3.1-0.3-6.1-1.3-8.9
			c-2.3,4.1-5.5,7.7-9.6,10.1c-5.5,3.3-12.8,4.2-18.6,1.3c3.4,5.2,10.1,6.9,16.2,8.3c-3,1.2-6.5,1.3-9.7,1.4
			c-4.5-0.1-9.1-0.7-13.3-2.2c-7.8-3-14-9.4-18-16.7c-0.1-0.2-0.2-0.5-0.3-0.7C343.3,687.2,343.1,689.1,343,691.1z"/>
		<g>
			
				<ellipse transform="matrix(2.675850e-02 -0.9996 0.9996 2.675850e-02 -312.3743 1025.0222)" class="st3" cx="370.2" cy="672.9" rx="4.3" ry="9.3"/>
		</g>
	</g>
</g>
</svg>
