<?xml version="1.0" encoding="utf-8"?>
<!-- Generator: Adobe Illustrator 23.0.0, SVG Export Plug-In . SVG Version: 6.00 Build 0)  -->
<svg version="1.1" id="图层_1" xmlns="http://www.w3.org/2000/svg" xmlns:xlink="http://www.w3.org/1999/xlink" x="0px" y="0px"
	 viewBox="0 0 942 834" enable-background="new 0 0 942 834" xml:space="preserve">
<g>
	
		<radialGradient id="SVGID_1_" cx="448.9613" cy="381.1643" r="491.7659" fx="786.6573" fy="552.3042" gradientUnits="userSpaceOnUse">
		<stop  offset="0.2234" style="stop-color:#A17AB2"/>
		<stop  offset="0.544" style="stop-color:#4C58A4"/>
	</radialGradient>
	<path fill="url(#SVGID_1_)" d="M638.059,726.803c0,0,52.394,0.328,57.145-23.691c4.083-20.644,10.333-64.009-74.779-146.491
		c0,0-184.008-178.009-146.123-294.435c0,0,28.645-126.59,110.882-96.098c0,0,18.48,31.417,21.252,48.973
		c0,0,0.924,74.845,72.073,87.782c0,0-17.556-17.556-10.164-51.745c0,0,7.433-70.225-32.32-78.541l-12.957-11.208
		c0,0-4.579-10.968,12.957-10.968c0,0,12.916,7.392,28.624-25.872c0,0,13.86-83.161,60.985-88.706c0,0-74.68-11.122-121.97,57.289
		c0,0-6.468,30.493-27.721,30.493c0,0-120.122-38.809-216.22,90.554c0,0-72.997,93.326-64.681,226.384
		c0,0-93.326,12.012-117.35-47.125c0,0-12.158,7.11,0,37.885c0,0,28.774,70.647,123.901,91.116c0,0,135.107,158.97,271.438,197.28
		C596.019,726.137,622.915,728.14,638.059,726.803z"/>
	<path fill="#FFFFFF" stroke="#000000" stroke-miterlimit="10" d="M307.224,466.106c0,9.651,19.563,101.336,62.991,135.525"/>
	<g>
		<defs>
			<path id="SVGID_105_" d="M638.059,726.803c0,0,52.394,0.328,57.145-23.691c4.083-20.644,10.333-64.009-74.779-146.491
				c0,0-184.008-178.009-146.123-294.435c0,0,28.645-126.59,110.882-96.098c0,0,18.48,31.417,21.252,48.973
				c0,0,0.924,74.845,72.073,87.782c0,0-17.556-17.556-10.164-51.745c0,0,7.433-70.225-32.32-78.541l-12.957-11.208
				c0,0-4.579-10.968,12.957-10.968c0,0,12.916,7.392,28.624-25.872c0,0,13.86-83.161,60.985-88.706c0,0-74.68-11.122-121.97,57.289
				c0,0-6.468,30.493-27.721,30.493c0,0-120.122-38.809-216.22,90.554c0,0-72.997,93.326-64.681,226.384
				c0,0-93.326,12.012-117.35-47.125c0,0-12.158,7.11,0,37.885c0,0,19.404,73.921,91.478,86.858
				c0,0,187.659,170.374,303.861,201.538C596.094,725.862,622.915,728.14,638.059,726.803z"/>
		</defs>
		<clipPath id="SVGID_2_">
			<use xlink:href="#SVGID_105_"  overflow="visible"/>
		</clipPath>
		<linearGradient id="SVGID_3_" gradientUnits="userSpaceOnUse" x1="292.4112" y1="439.7694" x2="638.9182" y2="439.7694">
			<stop  offset="0" style="stop-color:#F1F3F2"/>
			<stop  offset="1" style="stop-color:#AEB0CE"/>
		</linearGradient>
		<path clip-path="url(#SVGID_2_)" fill="url(#SVGID_3_)" d="M631.977,727.131c0,0,37.409-34.772-61.461-97.149
			c0,0-108.649-63.984-128.556-85.046c-9.429-9.976-63.999-47.993-94.412-113.685c-9.964-21.522-15.056-49.124-15.298-74.95
			c-0.403-43.038,23.121-133.075,94.635-205.035l-103.235,48.739c0,0-37.54,202.741-30.317,240.705
			c3.778,19.859-21.382,88.792,74.779,169.787c33.735,28.415,112.856,72.988,168.614,98.763S631.977,727.131,631.977,727.131z"/>
	</g>
	
		<radialGradient id="SVGID_4_" cx="323.2955" cy="421.4825" r="125.9501" fx="220.3331" fy="354.3308" gradientUnits="userSpaceOnUse">
		<stop  offset="0.0236" style="stop-color:#A17AB2"/>
		<stop  offset="1" style="stop-color:#4C58A4"/>
	</radialGradient>
	<path fill="url(#SVGID_4_)" d="M390.584,415.781c0,0-125.177-25.552-140.423-76.824c-0.233-0.782-1.346-0.719-1.449,0.091
		c-2.656,20.758-7.212,122.606,149.946,165.514"/>
	<radialGradient id="SVGID_5_" cx="567.5742" cy="572.3809" r="6.9763" gradientUnits="userSpaceOnUse">
		<stop  offset="0.1013" style="stop-color:#582413"/>
		<stop  offset="1" style="stop-color:#100306"/>
	</radialGradient>
	<circle fill="url(#SVGID_5_)" cx="567.574" cy="572.381" r="6.976"/>
</g>
</svg>
